<?xml version="1.0" encoding="UTF-8"?>
<svg version="1.1" xmlns="http://www.w3.org/2000/svg" width="512" height="512">
<path d="M0 0 C3.91010918 0.00690319 7.82018144 -0.00374538 11.73028278 -0.01193976 C19.3551737 -0.02516146 26.97997519 -0.02245163 34.60486937 -0.01370184 C40.81119129 -0.00687957 47.01748845 -0.006028 53.22381306 -0.00927329 C54.11284899 -0.00973299 55.00188493 -0.01019269 55.91786134 -0.01066632 C57.72487498 -0.01162566 59.53188861 -0.0125983 61.33890224 -0.01358409 C78.2160442 -0.0221041 95.09313698 -0.01235739 111.97027087 0.00381701 C126.39833573 0.01721708 140.82632812 0.01488803 155.25439167 0.00106072 C172.07813995 -0.01505536 188.90184532 -0.02128045 205.72560024 -0.01210248 C207.52533817 -0.01114701 209.3250761 -0.01020389 211.12481403 -0.00927329 C212.45248643 -0.00857905 212.45248643 -0.00857905 213.80698049 -0.00787079 C219.99362411 -0.0052989 226.18024012 -0.0096126 232.36687946 -0.01671195 C239.92382407 -0.02519457 247.48067542 -0.02270676 255.03760958 -0.00686972 C258.88070737 0.0009233 262.72365066 0.00426162 266.56674671 -0.00581717 C298.57614008 -0.08259501 329.57207098 0.64981152 355.17431355 22.39217401 C355.8497823 22.93486932 356.52525105 23.47756463 357.22118855 24.03670526 C378.07784631 41.29599375 385.4171432 64.94004182 387.90484381 90.85015893 C388.74897119 101.94569769 388.59565364 113.09667542 388.56648755 124.21786046 C388.55958436 128.12796964 388.57023293 132.0380419 388.57842731 135.94814324 C388.59164901 143.57303416 388.58893918 151.19783565 388.58018939 158.82272983 C388.57336712 165.02905175 388.57251555 171.23534891 388.57576084 177.44167352 C388.57622054 178.33070945 388.57668024 179.21974539 388.57715387 180.1357218 C388.57811321 181.94273544 388.57908585 183.74974907 388.58007164 185.5567627 C388.58859165 202.43390466 388.57884495 219.31099744 388.56267054 236.18813133 C388.54927047 250.61619619 388.55159952 265.04418858 388.56542683 279.47225213 C388.58154291 296.29600041 388.587768 313.11970578 388.57859004 329.9434607 C388.57763456 331.74319863 388.57669144 333.54293656 388.57576084 335.34267449 C388.57529801 336.22778942 388.57483519 337.11290436 388.57435834 338.02484095 C388.57178646 344.21148457 388.57610015 350.39810058 388.5831995 356.58473992 C388.59168212 364.14168453 388.58919431 371.69853588 388.57335727 379.25547004 C388.56556425 383.09856783 388.56222594 386.94151112 388.57230473 390.78460717 C388.64908256 422.79400055 387.91667603 453.78993144 366.17431355 479.39217401 C365.63161823 480.06764276 365.08892292 480.74311151 364.5297823 481.43904901 C347.2704938 502.29570677 323.62644573 509.63500366 297.71632862 512.12270427 C286.62078986 512.96683165 275.46981213 512.8135141 264.34862709 512.78434801 C260.43851791 512.77744482 256.52844565 512.78809339 252.61834431 512.79628778 C244.99345339 512.80950947 237.3686519 512.80679964 229.74375772 512.79804985 C223.5374358 512.79122758 217.33113864 512.79037601 211.12481403 512.7936213 C210.2357781 512.794081 209.34674217 512.7945407 208.43076575 512.79501433 C206.62375211 512.79597367 204.81673848 512.79694631 203.00972486 512.7979321 C186.13258289 512.80645211 169.25549011 512.79670541 152.37835622 512.780531 C137.95029136 512.76713093 123.52229897 512.76945998 109.09423542 512.78328729 C92.27048714 512.79940337 75.44678177 512.80562846 58.62302685 512.7964505 C56.82328892 512.79549502 55.02355099 512.7945519 53.22381306 512.7936213 C52.33869813 512.79315848 51.4535832 512.79269565 50.5416466 512.7922188 C44.35500298 512.78964692 38.16838697 512.79396061 31.98174763 512.80105996 C24.42480302 512.80954258 16.86795167 512.80705477 9.31101751 512.79121773 C5.46791972 512.78342471 1.62497644 512.7800864 -2.21811962 512.79016519 C-34.22751299 512.86694302 -65.22344389 512.13453649 -90.82568645 490.39217401 C-91.5011552 489.84947869 -92.17662395 489.30678338 -92.87256145 488.74764276 C-113.72921922 471.48835426 -121.0685161 447.84430619 -123.55621672 421.93418908 C-124.4003441 410.83865032 -124.24702655 399.68767259 -124.21786046 388.56648755 C-124.21095727 384.65637837 -124.22160584 380.74630611 -124.22980022 376.83620477 C-124.24302192 369.21131385 -124.24031209 361.58651236 -124.2315623 353.96161819 C-124.22474003 347.75529626 -124.22388846 341.5489991 -124.22713375 335.34267449 C-124.22759345 334.45363856 -124.22805315 333.56460263 -124.22852678 332.64862621 C-124.22948612 330.84161257 -124.23045876 329.03459894 -124.23144455 327.22758532 C-124.23996456 310.35044335 -124.23021785 293.47335057 -124.21404345 276.59621668 C-124.20064338 262.16815183 -124.20297243 247.74015943 -124.21679974 233.31209588 C-124.23291582 216.4883476 -124.23914091 199.66464223 -124.22996294 182.84088731 C-124.22900747 181.04114938 -124.22806435 179.24141145 -124.22713375 177.44167352 C-124.22667092 176.55655859 -124.2262081 175.67144366 -124.22573125 174.75950706 C-124.22315937 168.57286344 -124.22747306 162.38624743 -124.23457241 156.19960809 C-124.24305503 148.64266348 -124.24056722 141.08581213 -124.22473018 133.52887797 C-124.21693716 129.68578018 -124.21359885 125.8428369 -124.22367764 121.99974084 C-124.30045547 89.99034747 -123.56804894 58.99441657 -101.82568645 33.39217401 C-101.28299114 32.71670526 -100.74029583 32.04123651 -100.1811552 31.34529901 C-82.92186671 10.48864124 -59.27781864 3.14934436 -33.36770153 0.66164374 C-22.27216277 -0.18248364 -11.12118504 -0.02916609 0 0 Z " fill="#FEFEFE" transform="translate(123.82568645477295,-0.39217400550842285)"/>
<path d="M0 0 C0.86753906 -0.01998047 1.73507813 -0.03996094 2.62890625 -0.06054688 C3.87994141 -0.05958008 3.87994141 -0.05958008 5.15625 -0.05859375 C6.29803711 -0.06137329 6.29803711 -0.06137329 7.46289062 -0.06420898 C9.5 0.4375 9.5 0.4375 11.21875 2.07861328 C12.82254711 5.03133579 13.07033573 7.32621401 13.34375 10.67578125 C13.45388428 11.94977783 13.56401855 13.22377441 13.67749023 14.53637695 C13.78525963 15.94089757 13.89275399 17.34543932 14 18.75 C14.12271818 20.2281972 14.24652218 21.70630461 14.37133789 23.18432617 C14.76728589 27.93389941 15.13601992 32.68538383 15.5 37.4375 C15.55951843 38.21077637 15.61903687 38.98405273 15.68035889 39.78076172 C16.2269056 46.88568216 16.76978624 53.99086677 17.2980957 61.09716797 C17.9747894 70.11762838 18.72940025 79.12682042 19.578125 88.1328125 C19.67009659 89.11382431 19.76206818 90.09483612 19.85682678 91.10557556 C20.30409446 95.86095023 20.76030305 100.61521983 21.23022461 105.3684082 C21.39720577 107.11928117 21.56396419 108.8701754 21.73046875 110.62109375 C21.80843689 111.37709869 21.88640503 112.13310364 21.96673584 112.91201782 C23.43993243 128.69238968 22.01473649 144.27958625 20.6015625 160.00390625 C20.40406173 162.25434476 20.20708073 164.50482894 20.0105896 166.75535583 C19.59957451 171.44626329 19.18395194 176.13673059 18.76464844 180.8269043 C18.23085364 186.79929965 17.70615852 192.77244959 17.18462563 198.74592686 C16.7789992 203.38506874 16.36978216 208.02388827 15.95939255 212.66261101 C15.76486291 214.86347396 15.57112005 217.06440661 15.37822342 219.26541328 C13.65722974 238.84450335 13.65722974 238.84450335 12.48974609 248.27709961 C12.3468515 249.43463242 12.20395691 250.59216522 12.05673218 251.78477478 C11.5 254.4375 11.5 254.4375 9.5 256.4375 C6.37453844 256.88376783 3.2162016 256.76160302 0.0625 256.75 C-0.80955078 256.76611328 -1.68160156 256.78222656 -2.58007812 256.79882812 C-3.41861328 256.79947266 -4.25714844 256.80011719 -5.12109375 256.80078125 C-5.8886499 256.80376221 -6.65620605 256.80674316 -7.44702148 256.80981445 C-10.12158098 256.32477423 -10.83162591 255.57011856 -12.5 253.4375 C-13.06835938 250.94744873 -13.06835938 250.94744873 -13.34375 247.93261719 C-13.45406555 246.79607193 -13.5643811 245.65952667 -13.67803955 244.48854065 C-13.7842865 243.24966599 -13.89053345 242.01079132 -14 240.734375 C-14.12091003 239.44486435 -14.24182007 238.1553537 -14.36639404 236.82676697 C-14.69294388 233.33701413 -15.002457 229.84594284 -15.30845642 226.35433578 C-15.56366988 223.46723485 -15.82902549 220.58110529 -16.0945549 217.69493771 C-17.74853688 199.70825159 -19.30120565 181.71130664 -20.5625 163.69238281 C-20.66107605 162.29880103 -20.76002436 160.90524552 -20.859375 159.51171875 C-20.90630493 158.84979523 -20.95323486 158.1878717 -21.00158691 157.50588989 C-21.43565981 151.69299863 -22.08915149 145.90878916 -22.85247803 140.13005066 C-24.16367782 129.43160887 -23.51780726 118.89653723 -22.2265625 108.234375 C-20.86343096 96.2588542 -19.7370663 84.27436211 -18.7109375 72.265625 C-18.6358622 71.38995377 -18.5607869 70.51428253 -18.48343658 69.61207581 C-18.02150165 64.21921665 -17.56362111 58.82602013 -17.10736084 53.43267822 C-16.48944883 46.13248682 -15.86740265 38.83264943 -15.24333572 31.53298187 C-15.02861872 29.01391134 -14.81599413 26.49467073 -14.60360718 23.97540283 C-14.47197671 22.42923367 -14.34027677 20.88307043 -14.20849609 19.33691406 C-14.15134933 18.65225571 -14.09420258 17.96759735 -14.0353241 17.26219177 C-12.9020924 4.05196835 -12.9020924 4.05196835 -11.20898438 1.46459961 C-7.79196946 -0.58902635 -3.87575743 -0.03167409 0 0 Z " fill="#1949D9" transform="translate(194.5,127.5625)"/>
<path d="M0 0 C0.88365234 0.00064453 1.76730469 0.00128906 2.67773438 0.00195312 C3.59748047 0.01806641 4.51722656 0.03417969 5.46484375 0.05078125 C6.38845703 0.04755859 7.31207031 0.04433594 8.26367188 0.04101562 C15.13529202 0.09622952 15.13529202 0.09622952 17.40234375 2.36328125 C17.84692766 4.90729961 18.17859825 7.37735794 18.4375 9.94140625 C18.52108261 10.70443054 18.60466522 11.46745483 18.69078064 12.25360107 C18.867037 13.87728731 19.03908119 15.50143539 19.20727539 17.12597656 C19.4596226 19.56286123 19.72363415 21.99823169 19.99023438 24.43359375 C20.8904705 32.77295981 21.65630884 41.09750042 22.15405273 49.47167969 C22.38604613 52.17347884 22.84067202 54.71403481 23.40234375 57.36328125 C23.57577853 59.44449857 23.71879979 61.52836075 23.83984375 63.61328125 C24.19872996 68.99096687 24.69610324 74.32503478 25.33984375 79.67578125 C25.42468018 80.38331543 25.5095166 81.09084961 25.59692383 81.81982422 C26.04238932 85.49377499 26.50481498 89.16527722 26.9765625 92.8359375 C28.28557325 103.16561592 28.88781052 112.81597989 27.60546875 123.1875 C26.58473924 131.63072637 25.65808236 140.08348038 24.74609375 148.5390625 C24.67204063 149.22552227 24.59798752 149.91198204 24.52169037 150.61924362 C24.13723293 154.1854524 23.75362853 157.75175213 23.37060547 161.31811523 C22.98177662 164.93839277 22.59153003 168.55851574 22.20082092 172.17859077 C21.8944274 175.01910941 21.58890351 177.85972125 21.28347778 180.70034409 C21.13416094 182.08719592 20.98448533 183.47400918 20.83444214 184.86078262 C20.11613144 191.50021853 19.40970951 198.13923923 18.80859375 204.79052734 C18.72202515 205.7329277 18.63545654 206.67532806 18.54626465 207.64628601 C18.39314762 209.3438344 18.2474651 211.04207804 18.11096191 212.74104309 C17.62296631 218.14265869 17.62296631 218.14265869 15.40234375 220.36328125 C12.10990771 220.81197786 8.78436632 220.68736367 5.46484375 220.67578125 C4.08522461 220.69995117 4.08522461 220.69995117 2.67773438 220.72460938 C1.35225586 220.72557617 1.35225586 220.72557617 0 220.7265625 C-0.80945068 220.72954346 -1.61890137 220.73252441 -2.45288086 220.7355957 C-5.28462067 220.24403017 -5.90056152 219.69966128 -7.59765625 217.36328125 C-8.13285461 214.63623935 -8.49314151 212.07360943 -8.74853516 209.31860352 C-8.83514908 208.49863388 -8.921763 207.67866425 -9.01100159 206.83384705 C-9.29476184 204.11693419 -9.55956213 201.39852232 -9.82421875 198.6796875 C-10.01819171 196.78446593 -10.21330748 194.889361 -10.40951538 192.99436951 C-10.92397615 187.99419603 -11.42226201 182.99253426 -11.91741943 177.99041748 C-12.42045559 172.93983795 -12.9396789 167.8909261 -13.45703125 162.84179688 C-16.57884995 132.2516783 -18.46800782 103.83820926 -14.84765625 73.17578125 C-14.28929823 68.32347926 -13.73806536 63.47037912 -13.1875 58.6171875 C-13.05006882 57.41456268 -12.91263763 56.21193787 -12.77104187 54.97286987 C-11.89585224 47.24418162 -11.1124311 39.51221513 -10.4140625 31.765625 C-10.32633575 30.80360672 -10.23860901 29.84158844 -10.14822388 28.85041809 C-9.81922037 25.224513 -9.49176846 21.5987612 -9.19128418 17.97036743 C-8.99022589 15.54292178 -8.77379421 13.11727782 -8.5546875 10.69140625 C-8.50172012 9.98471298 -8.44875275 9.27801971 -8.3941803 8.5499115 C-8.13633318 5.80965762 -7.85270138 3.75118278 -6.32519531 1.42797852 C-4.09054223 0.05074249 -2.61857278 -0.0096434 0 0 Z " fill="#1A49D9" transform="translate(312.59765625,145.63671875)"/>
<path d="M0 0 C0.92425781 -0.02900391 1.84851563 -0.05800781 2.80078125 -0.08789062 C4.13302734 -0.10045898 4.13302734 -0.10045898 5.4921875 -0.11328125 C6.30800293 -0.12786377 7.12381836 -0.14244629 7.96435547 -0.1574707 C10.125 0.3125 10.125 0.3125 11.86181641 2.03540039 C13.25134867 4.5402646 13.66194086 6.33334646 13.96875 9.171875 C14.07888428 10.11393799 14.18901855 11.05600098 14.30249023 12.02661133 C14.46213257 13.52937622 14.46213257 13.52937622 14.625 15.0625 C14.87285613 17.16577353 15.12416716 19.26864275 15.37890625 21.37109375 C15.50281738 22.3957373 15.62672852 23.42038086 15.75439453 24.47607422 C16.22312235 28.06347854 16.86022051 31.57564147 17.5625 35.125 C18.9670054 42.28947169 20.17078427 49.47647792 21.3125 56.6875 C21.49159912 57.78167236 21.67069824 58.87584473 21.85522461 60.00317383 C22.02030518 61.06173584 22.18538574 62.12029785 22.35546875 63.2109375 C22.50395264 64.14599121 22.65243652 65.08104492 22.80541992 66.04443359 C23.69545443 75.14603936 22.65752648 83.66310233 21.19140625 92.66015625 C20.89531715 94.53797035 20.89531715 94.53797035 20.59324646 96.45372009 C20.07131071 99.7571075 19.54305069 103.05934416 19.01123047 106.36114502 C18.2641498 111.00856712 17.52842373 115.65779756 16.79246521 120.30699158 C16.40130755 122.77388352 16.00745673 125.24035044 15.61048889 127.70631409 C14.82901751 132.60158158 14.08953854 137.4468924 13.68334961 142.38842773 C12.89197134 147.95022175 12.89197134 147.95022175 10.125 150.3125 C7.99609375 150.83007812 7.99609375 150.83007812 5.5625 150.84375 C4.68335938 150.84890625 3.80421875 150.8540625 2.8984375 150.859375 C1.98320312 150.84390625 1.06796875 150.8284375 0.125 150.8125 C-1.24785156 150.83570313 -1.24785156 150.83570313 -2.6484375 150.859375 C-3.96714844 150.85164063 -3.96714844 150.85164063 -5.3125 150.84375 C-6.11558594 150.83923828 -6.91867188 150.83472656 -7.74609375 150.83007812 C-9.875 150.3125 -9.875 150.3125 -11.58447266 148.72558594 C-13.28726403 145.54163023 -13.63386403 142.75517579 -14.0859375 139.171875 C-14.17922836 138.46470337 -14.27251923 137.75753174 -14.36863708 137.02893066 C-14.67306227 134.70802946 -14.9613433 132.38541008 -15.25 130.0625 C-15.67265171 126.80132258 -16.10382652 123.54128954 -16.53515625 120.28125 C-16.64363388 119.45312805 -16.75211151 118.6250061 -16.86387634 117.77178955 C-17.6008033 112.19901866 -18.41916716 106.64415332 -19.30859375 101.09375 C-19.42487122 100.36746399 -19.54114868 99.64117798 -19.66094971 98.8928833 C-20.10942151 96.10725164 -20.56121036 93.32225447 -21.02386475 90.53894043 C-21.33997151 88.63616756 -21.6486377 86.7321632 -21.95703125 84.828125 C-22.13468018 83.75852539 -22.3123291 82.68892578 -22.49536133 81.58691406 C-23.52234553 72.72909272 -22.14475335 64.46114192 -20.7578125 55.70703125 C-20.5380409 54.29560355 -20.31863597 52.88411872 -20.09957886 51.47257996 C-19.64113787 48.52771601 -19.17834728 45.58357826 -18.71240234 42.63989258 C-18.11687279 38.87530958 -17.53221607 35.10913276 -16.95077705 31.34235096 C-16.50041068 28.43255222 -16.04434998 25.52366795 -15.58657455 22.61502647 C-15.3687574 21.22668256 -15.15268317 19.83806399 -14.93841934 18.44916725 C-14.63806269 16.50793352 -14.32921379 14.56801955 -14.02001953 12.62817383 C-13.84681183 11.5264534 -13.67360413 10.42473297 -13.49514771 9.28962708 C-11.50808508 -0.24961319 -8.94557185 0.09279639 0 0 Z " fill="#1A49D9" transform="translate(255.875,180.6875)"/>
<path d="M0 0 C0.96744141 -0.03287109 1.93488281 -0.06574219 2.93164062 -0.09960938 C3.86041016 -0.10669922 4.78917969 -0.11378906 5.74609375 -0.12109375 C6.59743896 -0.13454834 7.44878418 -0.14800293 8.32592773 -0.16186523 C10.5625 0.4375 10.5625 0.4375 12.22216797 2.35522461 C14.0579058 6.57675287 14.93396406 10.80806484 15.82421875 15.3125 C16.01973831 16.27341553 16.21525787 17.23433105 16.41670227 18.22436523 C16.82731144 20.25749361 17.23297855 22.2916255 17.6340332 24.32666016 C18.24302988 27.40229856 18.87528751 30.47249941 19.50976562 33.54296875 C23.28207925 52.13458542 22.30866626 66.72344131 18.39990234 85.2434082 C17.68180261 88.65204405 16.9860353 92.06471106 16.29296875 95.47851562 C15.8450447 97.64610128 15.39587183 99.81342933 14.9453125 101.98046875 C14.73689728 103.00117966 14.52848206 104.02189056 14.31375122 105.0735321 C14.11369476 106.0124379 13.91363831 106.95134369 13.70751953 107.91870117 C13.53431183 108.74552902 13.36110413 109.57235687 13.18264771 110.42424011 C12.5625 112.4375 12.5625 112.4375 10.5625 114.4375 C8.43945312 114.69628906 8.43945312 114.69628906 5.84375 114.703125 C4.91175781 114.70570313 3.97976562 114.70828125 3.01953125 114.7109375 C2.04371094 114.70320313 1.06789062 114.69546875 0.0625 114.6875 C-1.40123047 114.69910156 -1.40123047 114.69910156 -2.89453125 114.7109375 C-3.82652344 114.70835937 -4.75851563 114.70578125 -5.71875 114.703125 C-6.57533203 114.70086914 -7.43191406 114.69861328 -8.31445312 114.69628906 C-10.4375 114.4375 -10.4375 114.4375 -12.4375 112.4375 C-13.05764771 110.32139587 -13.05764771 110.32139587 -13.58251953 107.67163086 C-13.78257599 106.6797728 -13.98263245 105.68791473 -14.18875122 104.66600037 C-14.50137405 103.05049034 -14.50137405 103.05049034 -14.8203125 101.40234375 C-15.03944305 100.29452042 -15.25857361 99.18669708 -15.48434448 98.04530334 C-15.94701707 95.69477334 -16.40573677 93.34346239 -16.86083984 90.99145508 C-17.55537064 87.41174573 -18.26700147 83.83574264 -18.98046875 80.25976562 C-19.42812711 77.97416252 -19.87477375 75.68836098 -20.3203125 73.40234375 C-20.53277618 72.33950668 -20.74523987 71.27666962 -20.96414185 70.18162537 C-22.97084646 59.68035102 -22.45334882 51.14219228 -20.3203125 40.69140625 C-20.1030954 39.59908188 -19.8858783 38.50675751 -19.66207886 37.3813324 C-19.20390743 35.08874188 -18.74144492 32.79700516 -18.27490234 30.50610352 C-17.56023394 26.98884754 -16.86322993 23.46840336 -16.16796875 19.94726562 C-15.71979607 17.71593547 -15.27061319 15.48480793 -14.8203125 13.25390625 C-14.61189728 12.19877335 -14.40348206 11.14364044 -14.18875122 10.05653381 C-13.98869476 9.0846965 -13.78863831 8.11285919 -13.58251953 7.11157227 C-13.40931183 6.2549147 -13.23610413 5.39825714 -13.05764771 4.51564026 C-11.26733103 -1.48378396 -5.14428452 0.03072234 0 0 Z " fill="#1A49D9" transform="translate(132.4375,198.5625)"/>
<path d="M0 0 C0.97195313 -0.03738281 1.94390625 -0.07476562 2.9453125 -0.11328125 C3.87859375 -0.12488281 4.811875 -0.13648438 5.7734375 -0.1484375 C6.63114746 -0.16825684 7.48885742 -0.18807617 8.37255859 -0.20849609 C10.625 0.375 10.625 0.375 12.31860352 2.47094727 C13.79483876 5.75254291 14.61633742 8.84553525 15.37890625 12.36328125 C15.52529037 13.02531052 15.6716745 13.68733978 15.82249451 14.36943054 C16.28598042 16.47370334 16.73709813 18.58039204 17.1875 20.6875 C17.64320787 22.77863643 18.10143649 24.86920738 18.56015015 26.95968628 C18.85422587 28.30402957 19.14610328 29.64885576 19.43569946 30.99417114 C20.15229008 34.30945978 20.93209287 37.58772527 21.83984375 40.85546875 C23.87102871 49.96043218 21.57531498 57.67969916 19.3125 66.5625 C18.69078851 69.05583563 18.06969076 71.54932438 17.44921875 74.04296875 C17.14290527 75.25645996 16.8365918 76.46995117 16.52099609 77.72021484 C15.3705926 82.41273264 14.34640874 87.12990584 13.34692383 91.85668945 C12.625 94.375 12.625 94.375 10.625 96.375 C8.50195312 96.63378906 8.50195312 96.63378906 5.90625 96.640625 C4.97425781 96.64320313 4.04226563 96.64578125 3.08203125 96.6484375 C2.10621094 96.64070313 1.13039063 96.63296875 0.125 96.625 C-1.33873047 96.63660156 -1.33873047 96.63660156 -2.83203125 96.6484375 C-3.76402344 96.64585937 -4.69601562 96.64328125 -5.65625 96.640625 C-6.51283203 96.63836914 -7.36941406 96.63611328 -8.25195312 96.63378906 C-10.375 96.375 -10.375 96.375 -12.375 94.375 C-13.01342773 92.6418457 -13.01342773 92.6418457 -13.55859375 90.55078125 C-13.76250732 89.77645752 -13.9664209 89.00213379 -14.17651367 88.2043457 C-14.38638916 87.37378662 -14.59626465 86.54322754 -14.8125 85.6875 C-15.03204346 84.83696045 -15.25158691 83.9864209 -15.4777832 83.11010742 C-17.124919 76.62409313 -18.50945087 70.11928884 -19.75 63.54296875 C-20.25568547 60.97977553 -20.8521972 58.5107231 -21.5625 56 C-23.22358069 48.58902461 -22.33331396 41.85737562 -20.4765625 34.578125 C-20.28154144 33.78146423 -20.08652039 32.98480347 -19.8855896 32.16400146 C-19.4751445 30.49566154 -19.05977198 28.82852667 -18.63964844 27.16259766 C-17.9987669 24.62010809 -17.37312893 22.07423631 -16.75 19.52734375 C-16.34723211 17.89822019 -15.94361575 16.26930612 -15.5390625 14.640625 C-15.35252106 13.88533508 -15.16597961 13.13004517 -14.9737854 12.35186768 C-12.13134946 1.12108956 -11.17365456 0.16172395 0 0 Z " fill="#1949D9" transform="translate(379.375,207.625)"/>
<path d="M0 0 C0.87914062 0.00064453 1.75828125 0.00128906 2.6640625 0.00195312 C4.03691406 0.02612305 4.03691406 0.02612305 5.4375 0.05078125 C6.81035156 0.04594727 6.81035156 0.04594727 8.2109375 0.04101562 C15.03667092 0.09606186 15.03667092 0.09606186 18.4375 2.36328125 C20.23225971 6.03944424 21.58615183 9.87978658 22.99121094 13.72021484 C23.68214981 15.5987352 24.39958975 17.46743844 25.1171875 19.3359375 C25.55804688 20.52574219 25.99890625 21.71554688 26.453125 22.94140625 C26.85821289 24.0284082 27.26330078 25.11541016 27.68066406 26.23535156 C29.49147586 33.7192615 25.53150188 41.14867982 23 48.11328125 C22.59201172 49.26183594 22.18402344 50.41039062 21.76367188 51.59375 C21.17102539 53.23537109 21.17102539 53.23537109 20.56640625 54.91015625 C20.20619385 55.90885742 19.84598145 56.90755859 19.47485352 57.93652344 C18.4375 60.36328125 18.4375 60.36328125 16.4375 62.36328125 C13.00134055 62.8667111 9.53136928 62.77996803 6.0625 62.80078125 C5.1034375 62.83365234 4.144375 62.86652344 3.15625 62.90039062 C-3.80441799 62.95371051 -3.80441799 62.95371051 -7 60.46484375 C-9.15095066 56.19520669 -10.70781168 51.84132926 -12.1875 47.30078125 C-12.78151732 45.51744908 -13.37779133 43.73486665 -13.9765625 41.953125 C-14.2338916 41.16800537 -14.4912207 40.38288574 -14.75634766 39.57397461 C-15.50386349 37.34067742 -15.50386349 37.34067742 -16.70092773 35.33081055 C-19.39763607 29.17247319 -13.86925481 19.31922585 -11.625 13.48828125 C-11.27759766 12.55242187 -10.93019531 11.6165625 -10.57226562 10.65234375 C-10.05889648 9.3065625 -10.05889648 9.3065625 -9.53515625 7.93359375 C-9.22843994 7.12680176 -8.92172363 6.32000977 -8.60571289 5.48876953 C-6.5170919 1.23332034 -4.74143379 -0.01759962 0 0 Z " fill="#1A49D9" transform="translate(435.5625,224.63671875)"/>
<path d="M0 0 C0.91136719 -0.03738281 1.82273437 -0.07476562 2.76171875 -0.11328125 C9.37617289 -0.20044097 9.37617289 -0.20044097 12.453125 2.1640625 C14.98695 7.03042734 17.04725965 12.0006113 19 17.125 C19.42796875 18.17171875 19.8559375 19.2184375 20.296875 20.296875 C22.90916995 27.12640429 23.67087745 31.50469989 21.125 38.375 C20.83367187 39.23802734 20.54234375 40.10105469 20.2421875 40.99023438 C19.27680006 43.7662158 18.24317121 46.50719188 17.1875 49.25 C16.84009766 50.18585938 16.49269531 51.12171875 16.13476562 52.0859375 C15.79251953 52.983125 15.45027344 53.8803125 15.09765625 54.8046875 C14.79093994 55.61147949 14.48422363 56.41827148 14.16821289 57.24951172 C13.04732893 59.5332505 12.16497424 60.85378519 10.125 62.375 C7.99609375 62.76318359 7.99609375 62.76318359 5.5625 62.7734375 C4.68335937 62.77730469 3.80421875 62.78117187 2.8984375 62.78515625 C1.98320313 62.77355469 1.06796875 62.76195312 0.125 62.75 C-0.79023437 62.76160156 -1.70546875 62.77320313 -2.6484375 62.78515625 C-3.52757813 62.78128906 -4.40671875 62.77742188 -5.3125 62.7734375 C-6.51712891 62.76836182 -6.51712891 62.76836182 -7.74609375 62.76318359 C-10.47673864 62.26527931 -11.21760915 61.58976962 -12.875 59.375 C-14.89076614 55.23688698 -16.46949721 50.91808352 -18.125 46.625 C-18.59679688 45.45710938 -19.06859375 44.28921875 -19.5546875 43.0859375 C-23.48398694 32.95248105 -22.47704214 27.16969883 -18.5 17.375 C-18.19578125 16.60671875 -17.8915625 15.8384375 -17.578125 15.046875 C-16.69076616 12.81710151 -15.78452169 10.59580767 -14.875 8.375 C-14.60268555 7.68664062 -14.33037109 6.99828125 -14.04980469 6.2890625 C-11.0955762 -0.99431843 -7.16717947 0.1105736 0 0 Z " fill="#1A49D9" transform="translate(70.875,224.625)"/>
</svg>
